<?xml version="1.0" encoding="UTF-8" standalone="no"?>
<!-- Generated by Microsoft Visio 11.0, SVG Export, v1.0 wafo.svg Page-3 -->
<svg
   xmlns:v="http://schemas.microsoft.com/visio/2003/SVGExtensions/"
   xmlns:dc="http://purl.org/dc/elements/1.1/"
   xmlns:cc="http://web.resource.org/cc/"
   xmlns:rdf="http://www.w3.org/1999/02/22-rdf-syntax-ns#"
   xmlns:svg="http://www.w3.org/2000/svg"
   xmlns="http://www.w3.org/2000/svg"
   xmlns:sodipodi="http://sodipodi.sourceforge.net/DTD/sodipodi-0.dtd"
   xmlns:inkscape="http://www.inkscape.org/namespaces/inkscape"
   width="8.26772in"
   height="11.6929in"
   viewBox="0 0 595.276 841.89"
   xml:space="preserve"
   color-interpolation-filters="sRGB"
   class="st4"
   id="svg2269"
   sodipodi:version="0.32"
   inkscape:version="0.45.1"
   sodipodi:docname="wafoLogoNewWithoutBorder.svg"
   inkscape:output_extension="org.inkscape.output.svg.inkscape"
   sodipodi:docbase="L:\wafosvn\wafo\data"
   inkscape:export-filename="K:\pab\seamocs\wafo\wafoOrig3.png"
   inkscape:export-xdpi="90"
   inkscape:export-ydpi="90"><metadata
   id="metadata2325"><rdf:RDF><cc:Work
       rdf:about=""><dc:format>image/svg+xml</dc:format><dc:type
         rdf:resource="http://purl.org/dc/dcmitype/StillImage" /></cc:Work></rdf:RDF></metadata><defs
   id="defs2323">
		<title
   id="title2275">Page-3</title>
		<v:pageProperties
   v:shadowOffsetY="-8.50394"
   v:shadowOffsetX="8.50394"
   v:drawingUnits="24"
   v:pageScale="0.0393701"
   v:drawingScale="0.0393701" />
		
	
			<title
   id="title2278">Sheet.1</title>
			
			
			
			
			
			
			
			
		</defs><sodipodi:namedview
   inkscape:window-height="878"
   inkscape:window-width="1280"
   inkscape:pageshadow="2"
   inkscape:pageopacity="0.0"
   guidetolerance="10.0"
   gridtolerance="10.0"
   objecttolerance="10.0"
   borderopacity="1.0"
   bordercolor="#666666"
   pagecolor="#ffffff"
   id="base"
   inkscape:zoom="1.7424566"
   inkscape:cx="353.93418"
   inkscape:cy="530.60308"
   inkscape:window-x="22"
   inkscape:window-y="0"
   inkscape:current-layer="svg2269" />
	<v:documentProperties
   v:langID="1033"
   v:viewMarkup="false" />

	<style
   type="text/css"
   id="style2271">
	
		.st1 {fill:#99ccff;stroke:#000000;stroke-linecap:round;stroke-linejoin:round;stroke-width:0.72}
		.st2 {fill:#99ccff}
		.st3 {stroke:#000000;stroke-linecap:round;stroke-linejoin:round;stroke-width:0.72}
		.st4 {fill:none;fill-rule:evenodd;font-size:12;overflow:visible;stroke-linecap:square;stroke-miterlimit:3}
	
	</style>

	
<g
   id="shape7-12"
   v:mID="7"
   v:groupContext="shape"
   transform="matrix(-1,0,0,1,256.67095,-422.88896)"
   style="fill:#195fdd;fill-opacity:1;stroke:none;stroke-opacity:1"
   inkscape:export-filename="L:\wafosvn\wafo\data\wafoLogoNewWithoutBorder.png"
   inkscape:export-xdpi="90"
   inkscape:export-ydpi="90">
				<title
   id="title2306">Sheet.7</title>
				<path
   d="M 41.15,839.74 L 40.82,839.65 C 36.438057,841.07306 31.866812,841.8282 27.26,841.89 L 57.24,841.89 L 233.17,841.89 C 193.47256,841.88871 157.97545,817.96328 144.21,781.93 C 143.82849,780.80226 143.42509,779.68205 143,778.57 C 135.48163,758.86333 121.40568,742.34721 103.14,731.8 C 89.183986,723.74546 73.353531,719.50676 57.24,719.51 C 35.779898,719.51157 15.888896,730.7548 4.82,749.14 C 4.6270847,749.45826 4.4370768,749.77827 4.25,750.1 C 2.5927697,752.96998 1.1714283,755.96985 1.5743344e-014,759.07 C 7.7271908,753.36881 17.04805,750.23504 26.65,750.11 L 26.95,750.1 C 49.647419,749.93898 69.05332,766.39405 72.604659,788.8125 C 76.155997,811.23095 62.785926,832.87812 41.15,839.74 L 41.15,839.74 z M 27.26,841.89 C 27.156667,841.89035 27.053333,841.89035 26.95,841.89 L 27.26,841.89 L 27.26,841.89 z M 26.95,841.89 L 26.65,841.89 L 26.95,841.89 L 26.95,841.89 z "
   class="st2"
   id="path2308"
   style="fill:#195fdd;fill-opacity:1;stroke:none;stroke-opacity:1" />
				<path
   d="M 41.15,839.74 L 40.82,839.65 C 36.438057,841.07306 31.866812,841.8282 27.26,841.89 L 57.24,841.89 L 233.17,841.89 C 193.47256,841.88871 157.97545,817.96328 144.21,781.93 C 143.82849,780.80226 143.42509,779.68205 143,778.57 C 135.48163,758.86333 121.40568,742.34721 103.14,731.8 C 89.183986,723.74546 73.353531,719.50676 57.24,719.51 C 35.779898,719.51157 15.888896,730.7548 4.82,749.14 C 4.6270847,749.45826 4.4370768,749.77827 4.25,750.1 C 2.5927697,752.96998 1.1714283,755.96985 1.5743344e-014,759.07 C 7.7271908,753.36881 17.04805,750.23504 26.65,750.11 L 26.95,750.1 C 49.647419,749.93898 69.05332,766.39405 72.604659,788.8125 C 76.155997,811.23095 62.785926,832.87812 41.15,839.74 M 27.26,841.89 C 27.156667,841.89035 27.053333,841.89035 26.95,841.89 L 27.26,841.89 M 26.95,841.89 L 26.65,841.89 L 26.95,841.89"
   class="st3"
   id="path2310"
   style="fill:#195fdd;fill-opacity:1;stroke:none;stroke-width:0.72000003;stroke-linecap:round;stroke-linejoin:round;stroke-opacity:1" />
			</g><g
   style="stroke:none;stroke-opacity:1"
   id="shape2-2"
   v:mID="2"
   v:groupContext="shape"
   transform="translate(203.0194,-484.1574)"
   inkscape:export-filename="L:\wafosvn\wafo\data\wafoLogoNewWithoutBorder.png"
   inkscape:export-xdpi="90"
   inkscape:export-ydpi="90">
				<title
   id="title2281">Sheet.2</title>
				<path
   d="M 5.46,834.97 C 3.3155278,837.00103 1.4764469,839.33188 -1.1925672e-015,841.89 L 8.57,841.89 L 28.44,841.89 C 29.731238,836.8916 31.649812,832.07668 34.15,827.56 C 23.94872,824.92546 13.109603,827.72497 5.46,834.97 L 5.46,834.97 z "
   class="st1"
   id="path2283"
   style="fill:#99ccff;stroke:none;stroke-width:0.72000003;stroke-linecap:round;stroke-linejoin:round;stroke-opacity:1" />
			</g><g
   style="stroke:none;stroke-opacity:1"
   id="shape3-4"
   v:mID="3"
   v:groupContext="shape"
   transform="translate(76.5354,-422.965)"
   inkscape:export-filename="L:\wafosvn\wafo\data\wafoLogoNewWithoutBorder.png"
   inkscape:export-xdpi="90"
   inkscape:export-ydpi="90">
				<title
   id="title2286">Sheet.3</title>
				<path
   d="M 61.19,796 C 61.189242,787.5946 64.646473,779.55907 70.75,773.78 C 70.155747,772.70486 69.518568,771.65401 68.84,770.63 C 66.677258,767.36928 64.106406,764.39851 61.19,761.79 C 51.454477,770.49674 45.889798,782.93907 45.89,796 C 45.891817,806.49692 49.491912,816.67602 56.09,824.84 C 55.25174,825.13694 54.400932,825.39718 53.54,825.62 C 48.525469,826.91402 43.264531,826.91402 38.25,825.62 C 33.231033,824.32414 28.623577,821.77438 24.86,818.21 C 18.758996,812.43332 15.301988,804.40192 15.3,796 C 15.298262,790.78823 16.184266,785.61424 17.92,780.7 C 18.763907,778.31145 19.804127,775.99688 21.03,773.78 C 22.693324,770.7727 24.689169,767.96175 26.98,765.4 C 28.118655,764.13034 29.327196,762.92514 30.6,761.79 C 28.24732,759.68515 25.683747,757.82865 22.95,756.25 C 21.104007,755.18451 19.186031,754.24891 17.21,753.45 C 13.469155,757.31762 10.254769,761.66175 7.65,766.37 C 5.1498118,770.88668 3.2312383,775.7016 1.94,780.7 C 0.65066517,785.69777 -0.0011772613,790.83859 -2.3665698e-015,796 C 0.0026435879,809.05744 5.5670747,821.49558 15.3,830.2 C 17.65268,832.30485 20.216253,834.16135 22.95,835.74 C 27.681348,838.47278 32.862669,840.33873 38.25,841.25 C 40.774359,841.67605 43.329941,841.89013 45.89,841.89 C 53.94722,841.8901 61.862477,839.76901 68.84,835.74 C 73.571348,838.47278 78.752669,840.33873 84.14,841.25 C 86.667652,841.6766 89.226601,841.89068 91.79,841.89 C 97.688644,841.88968 103.53192,840.75226 109,838.54 C 110.97603,837.74109 112.89401,836.80549 114.74,835.74 C 117.47027,834.16077 120.03047,832.30429 122.38,830.2 C 121.11062,829.06458 119.90542,827.85938 118.77,826.59 C 116.47917,824.02825 114.48332,821.2173 112.82,818.21 C 111.59413,815.99312 110.55391,813.67855 109.71,811.29 C 107.97538,806.37892 107.0894,801.20841 107.09,796 C 107.08826,790.78823 107.97427,785.61424 109.71,780.7 C 110.55391,778.31145 111.59413,775.99688 112.82,773.78 C 114.48332,770.7727 116.47917,767.96175 118.77,765.4 C 119.90542,764.13062 121.11062,762.92542 122.38,761.79 C 118.43448,758.25899 113.9077,755.43736 109,753.45 C 105.25915,757.31762 102.04477,761.66175 99.44,766.37 C 96.939812,770.88668 95.021238,775.7016 93.73,780.7 C 92.440665,785.69777 91.788823,790.83859 91.79,796 C 91.789666,801.15806 92.441502,806.29547 93.73,811.29 C 94.430192,814.00083 95.315606,816.66042 96.38,819.25 C 97.276438,821.43051 98.298142,823.55739 99.44,825.62 C 94.422301,826.91574 89.157699,826.91574 84.14,825.62 C 83.279068,825.39718 82.42826,825.13694 81.59,824.84 C 77.552511,823.41294 73.859549,821.15424 70.75,818.21 C 70.083968,817.57897 69.446657,816.9183 68.84,816.23 C 67.4955,814.70535 66.30629,813.05051 65.29,811.29 C 62.605686,806.64125 61.191691,801.36809 61.19,796 z "
   class="st1"
   id="path2288"
   style="fill:#99ccff;stroke:none;stroke-width:0.72000003;stroke-linecap:round;stroke-linejoin:round;stroke-opacity:1" />
			</g><g
   style="stroke:none;stroke-opacity:1"
   id="shape4-6"
   v:mID="4"
   v:groupContext="shape"
   transform="translate(198.9204,-422.965)"
   inkscape:export-filename="L:\wafosvn\wafo\data\wafoLogoNewWithoutBorder.png"
   inkscape:export-xdpi="90"
   inkscape:export-ydpi="90">
				<title
   id="title2291">Sheet.4</title>
				<path
   d="M 47.81,838.54 C 44.069155,834.67238 40.854769,830.32825 38.25,825.62 C 33.233333,816.5536 30.601077,806.36178 30.6,796 L 0,796 C 0.0019883187,804.40192 3.4589958,812.43332 9.56,818.21 C 7.0683158,822.71453 3.8365461,826.76777 -3.5667036e-014,830.2 C 3.9485244,833.73199 8.4787648,836.55366 13.39,838.54 C 18.858079,840.75226 24.701356,841.88968 30.6,841.89 C 36.498644,841.88968 42.341921,840.75226 47.81,838.54 L 47.81,838.54 z "
   class="st1"
   id="path2293"
   style="fill:#99ccff;stroke:none;stroke-width:0.72000003;stroke-linecap:round;stroke-linejoin:round;stroke-opacity:1" />
			</g><g
   id="shape6-10"
   v:mID="6"
   v:groupContext="shape"
   transform="translate(291.16752,-422.77482)"
   style="fill:#195fdd;fill-opacity:1;stroke:none;stroke-opacity:1"
   inkscape:export-filename="L:\wafosvn\wafo\data\wafoLogoNewWithoutBorder.png"
   inkscape:export-xdpi="90"
   inkscape:export-ydpi="90">
				<title
   id="title2301">Sheet.6</title>
				<path
   d="M 61.19,841.89 C 55.291356,841.88968 49.448079,840.75226 43.98,838.54 C 39.072299,836.55264 34.545515,833.73101 30.6,830.2 C 23.504453,836.54775 14.61042,840.53172 5.15,841.6 C 3.4401274,841.79314 1.7207458,841.88996 4.5062722e-016,841.89 L 61.19,841.89 z "
   class="st1"
   id="path2303"
   style="fill:#195fdd;fill-opacity:1;stroke:none;stroke-width:0.72000003;stroke-linecap:round;stroke-linejoin:round;stroke-opacity:1" />
			</g><g
   style="stroke:none;stroke-opacity:1"
   id="shape8-15"
   v:mID="8"
   v:groupContext="shape"
   transform="translate(321.3044,-438.2631)"
   inkscape:export-filename="L:\wafosvn\wafo\data\wafoLogoNewWithoutBorder.png"
   inkscape:export-xdpi="90"
   inkscape:export-ydpi="90">
				<title
   id="title2313">Sheet.8</title>
				<path
   d="M 0.66,804.97 C 0.22124193,807.04805 4.9337977e-005,809.16614 -8.4213233e-016,811.29 C -0.00173203,823.19594 6.9033391,834.02169 17.7,839.04 C 19.389124,839.82517 21.146421,840.45445 22.95,840.92 C 32.112714,843.28407 41.853704,841.27543 49.333795,835.47954 C 56.813885,829.68364 61.191238,820.75278 61.19,811.29 C 61.188145,801.82898 56.809491,792.901 49.329842,787.1074 C 41.850193,781.3138 32.111014,779.30637 22.95,781.67 C 11.698204,784.57362 3.0624758,793.60065 0.66,804.97 L 0.66,804.97 z "
   class="st1"
   id="path2315"
   style="fill:#99ccff;stroke:none;stroke-width:0.72000003;stroke-linecap:round;stroke-linejoin:round;stroke-opacity:1" />
			</g><g
   style="stroke:none;stroke-opacity:1"
   id="shape9-17"
   v:mID="9"
   v:groupContext="shape"
   transform="translate(244.8144,-434.6517)"
   inkscape:export-filename="L:\wafosvn\wafo\data\wafoLogoNewWithoutBorder.png"
   inkscape:export-xdpi="90"
   inkscape:export-ydpi="90">
				<title
   id="title2318">Sheet.9</title>
				<path
   d="M 27.18,783.49 C 30.37046,781.1256 33.986249,779.39749 37.83,778.4 C 47.926884,775.79129 58.657172,778.50496 66.3,785.6 C 66.369401,785.473 66.439402,785.34634 66.51,785.22 C 68.139028,782.30777 69.755833,780.06867 71.975351,777.57698 L 75.762541,773.51888 C 76.9704,772.83669 74.666372,773.66976 76.150703,773.26302 C 74.017571,771.68987 75.329915,772.78466 75.088378,772.5107 C 71.389442,769.29521 68.011435,767.3416 63.49,765.45 C 57.914597,763.11726 51.933717,761.90749 45.89,761.89 C 41.970674,761.87571 38.065628,762.363 34.27,763.34 C 29.730068,764.51346 25.396538,766.37502 21.42,768.86 C 19.249037,770.21628 17.195223,771.75162 15.28,773.45 C 14.00412,774.58169 12.792244,775.78356 11.65,777.05 C 9.3432484,779.60319 7.3306275,782.40744 5.65,785.41 C 4.4101058,787.62889 3.3564901,789.94684 2.5,792.34 C 0.88804139,797.29563 0.044924941,802.46899 3.7470027e-016,807.68 C 0.00072628219,815.45325 1.9758087,823.09895 5.74,829.9 C 8.2316842,834.40453 11.463454,838.45777 15.3,841.89 C 16.569383,840.75458 17.77458,839.54938 18.91,838.28 C 21.091288,835.84112 23.005505,833.17597 24.62,830.33 C 24.700768,830.1871 24.78077,830.04376 24.86,829.9 C 18.756473,824.12093 15.299242,816.0854 15.3,807.68 L 61.19,807.68 C 61.191474,802.46766 62.080862,797.29365 63.82,792.38 L 19.4,792.38 C 20.593932,790.15426 22.125421,788.1269 23.94,786.37 C 24.243724,786.06684 24.553793,785.77011 24.87,785.48 C 25.606291,784.77851 26.377257,784.11435 27.18,783.49 L 27.18,783.49 z "
   class="st1"
   id="path2320"
   style="fill:#99ccff;stroke:none;stroke-width:0.72000003;stroke-linecap:round;stroke-linejoin:round;stroke-opacity:1"
   sodipodi:nodetypes="cccsccccsccssssccccssccccccccc" />
			</g><g
   id="g2184"
   v:mID="6"
   v:groupContext="shape"
   transform="translate(353.50185,-422.77482)"
   style="fill:#195fdd;fill-opacity:1;stroke:none;stroke-opacity:1"
   inkscape:export-filename="L:\wafosvn\wafo\data\wafoLogoNewWithoutBorder.png"
   inkscape:export-xdpi="90"
   inkscape:export-ydpi="90">
				<title
   id="title2186">Sheet.6</title>
				<path
   d="M 61.19,841.89 C 55.291356,841.88968 49.448079,840.75226 43.98,838.54 C 39.072299,836.55264 34.545515,833.73101 30.6,830.2 C 23.504453,836.54775 14.61042,840.53172 5.15,841.6 C 3.4401274,841.79314 1.7207458,841.88996 4.5062722e-016,841.89 L 61.19,841.89 z "
   class="st1"
   id="path2188"
   style="fill:#195fdd;fill-opacity:1;stroke:none;stroke-width:0.72000003;stroke-linecap:round;stroke-linejoin:round;stroke-opacity:1" />
			</g><g
   id="g2190"
   v:mID="6"
   v:groupContext="shape"
   transform="translate(229.31375,-422.77483)"
   style="fill:#195fdd;fill-opacity:1;stroke:none;stroke-opacity:1"
   inkscape:export-filename="L:\wafosvn\wafo\data\wafoLogoNewWithoutBorder.png"
   inkscape:export-xdpi="90"
   inkscape:export-ydpi="90">
				<title
   id="title2192">Sheet.6</title>
				<path
   d="M 61.19,841.89 C 55.291356,841.88968 49.448079,840.75226 43.98,838.54 C 39.072299,836.55264 34.545515,833.73101 30.6,830.2 C 23.504453,836.54775 14.61042,840.53172 5.15,841.6 C 3.4401274,841.79314 1.7207458,841.88996 4.5062722e-016,841.89 L 61.19,841.89 z "
   class="st1"
   id="path2194"
   style="fill:#195fdd;fill-opacity:1;stroke:none;stroke-width:0.72000003;stroke-linecap:round;stroke-linejoin:round;stroke-opacity:1" />
			</g><g
   inkscape:groupmode="layer"
   id="layer1"
   inkscape:label="W"
   style="opacity:0.57471266" /><g
   inkscape:groupmode="layer"
   id="layer2"
   inkscape:label="WAVE"
   sodipodi:insensitive="true" /></svg>